<svg width="23" height="20" viewBox="0 0 23 20" xmlns="http://www.w3.org/2000/svg"><path d="M1.145 11.537c.74 1.077 1.773 1.997 3.097 2.738-.09.337-.202.65-.337.965-.112.292-.224.54-.336.74-.09.18-.226.405-.405.63-.18.246-.292.404-.382.493-.09.113-.247.27-.45.472-.2.224-.313.38-.38.45-.023 0-.045.044-.09.11-.067.046-.09.09-.09.09-.022.023-.045.068-.09.135-.044.045-.044.09-.044.113 0 .022 0 .044-.024.112-.022.067-.022.134 0 .157v.022c.023.135.112.27.225.36.113.09.225.134.382.112.54-.068 1.01-.157 1.414-.27 2.2-.56 4.108-1.57 5.77-3.03.627.068 1.233.09 1.817.09 2.042 0 3.905-.36 5.634-1.077 1.728-.697 3.075-1.685 4.085-2.92 1.01-1.234 1.504-2.558 1.504-4.017 0-1.46-.494-2.783-1.504-4.018-1.01-1.234-2.357-2.222-4.085-2.918C15.127.36 13.265 0 11.223 0 9.696 0 8.26.202 6.868.628c-1.39.427-2.58.988-3.59 1.706-.99.718-1.797 1.57-2.38 2.56C.292 5.88 0 6.933 0 8.013c0 1.256.382 2.423 1.145 3.523" fill="#F7F7F7" fill-rule="evenodd"/></svg>
