<svg width="23" height="20" viewBox="0 0 23 20" xmlns="http://www.w3.org/2000/svg"><path d="M.292 7.586c.202.606.426 1.1.673 1.527.247.426.54.83.853 1.212.314.404.54.673.696.83.134.157.27.247.336.314l7.81 7.54c.16.158.338.226.563.226.224 0 .404-.068.56-.225l7.79-7.496c1.907-1.93 2.872-3.793 2.872-5.656 0-1.818-.538-3.255-1.593-4.31C19.797.516 18.338 0 16.452 0c-.516 0-1.032.09-1.57.27-.54.18-1.056.425-1.505.74-.47.292-.875.583-1.212.853-.314.27-.65.538-.942.853-.292-.315-.63-.584-.943-.853-.337-.27-.74-.56-1.212-.853-.45-.315-.965-.56-1.504-.74C7.024.09 6.51 0 5.994 0c-1.887 0-3.346.516-4.4 1.548C.537 2.603 0 4.04 0 5.858c0 .56.09 1.145.292 1.728" fill="#F7F7F7" fill-rule="evenodd"/></svg>
