<svg width="24" height="19" viewBox="0 0 24 19" xmlns="http://www.w3.org/2000/svg"><path d="M.884 17.816c.42.4.913.61 1.475.61h19.248c.563 0 1.054-.21 1.476-.61.398-.422.61-.913.61-1.475V5.968c-.377.42-.82.796-1.312 1.123-2.858 1.944-5.013 3.442-6.51 4.52-.492.375-.89.655-1.195.866-.328.188-.727.4-1.242.61-.514.21-.983.327-1.428.327h-.047c-.445 0-.913-.117-1.43-.328-.514-.21-.912-.42-1.24-.61-.304-.21-.702-.49-1.194-.865-1.194-.867-3.35-2.365-6.51-4.52C1.094 6.763.65 6.388.274 5.967V16.34c0 .563.21 1.054.61 1.476zM1 4.186c.47.656.984 1.148 1.523 1.523.304.21 1.193.818 2.67 1.85C6.69 8.612 7.84 9.385 8.635 9.946c.07.07.257.21.538.4.282.21.515.373.703.49.187.14.422.282.68.446.28.14.514.257.77.35.236.07.447.118.634.118h.047c.187 0 .398-.046.632-.116.257-.094.49-.212.772-.35.258-.165.49-.306.68-.447.186-.117.42-.28.7-.49.283-.19.47-.33.54-.4.82-.56 2.857-1.967 6.136-4.238.632-.446 1.147-.985 1.593-1.617.422-.632.633-1.29.633-1.968 0-.585-.21-1.076-.632-1.475-.398-.422-.89-.608-1.452-.608H2.358c-.655 0-1.17.21-1.545.68-.35.443-.54 1.006-.54 1.685 0 .56.235 1.148.728 1.78z" fill="#D9FFF7" fill-rule="evenodd"/></svg>
