<svg width="26" height="25" viewBox="0 0 26 25" xmlns="http://www.w3.org/2000/svg"><path d="M2.168 23.017c.907.878 1.957 1.333 3.233 1.333h8.592v-9.613h-3.545v-3.543h3.545V8.557c0-1.502.424-2.693 1.303-3.544.852-.85 2.014-1.275 3.43-1.275.908 0 1.844.055 2.864.14v3.26l-2.1.03c-.707 0-1.218.142-1.5.454-.313.312-.455.736-.455 1.303v2.27h3.686l-.48 3.542h-3.205v9.613h3.034c1.247 0 2.324-.455 3.23-1.333.88-.88 1.334-1.956 1.334-3.232V4.615c0-1.246-.454-2.324-1.333-3.203C22.895.532 21.846.08 20.57.08H5.4C4.126.08 3.076.533 2.17 1.412 1.288 2.292.836 3.37.836 4.616v15.17c0 1.275.453 2.352 1.332 3.23" fill="#D9FFF7" fill-rule="evenodd"/></svg>
