<svg width="26" height="25" viewBox="0 0 26 25" xmlns="http://www.w3.org/2000/svg"><path d="M3.16 20.133c1.53 2.126 3.544 3.6 5.982 4.395.285.056.483.027.624-.114.142-.114.2-.283.2-.454v-2.268l-.37.057c-.226.055-.51.055-.878.055-.34 0-.71-.027-1.107-.113-.367-.057-.735-.226-1.047-.48-.34-.23-.567-.57-.71-.967l-.14-.367c-.114-.227-.284-.51-.512-.795-.225-.312-.452-.51-.678-.595l-.114-.084c-.085-.057-.14-.114-.198-.2-.057-.055-.114-.14-.143-.226-.028-.057 0-.114.086-.17.057-.057.226-.085.453-.085l.312.057c.2.057.482.17.766.37.312.225.567.51.793.82.227.454.51.765.88.993.34.227.68.34 1.02.34.34 0 .652-.028.908-.058.254-.055.48-.14.71-.255.083-.708.338-1.246.764-1.615-.597-.085-1.135-.17-1.618-.283-.48-.143-.963-.34-1.474-.624-.51-.284-.936-.652-1.276-1.05-.34-.424-.624-.99-.85-1.672-.198-.68-.312-1.474-.312-2.38 0-1.277.426-2.355 1.247-3.263-.397-.964-.34-2.04.114-3.23.313-.087.766 0 1.362.225.595.227 1.05.426 1.333.595.254.17.48.312.652.455.99-.284 2.012-.426 3.062-.426 1.02 0 2.04.142 3.033.426l.595-.398c.396-.255.907-.48 1.446-.68.567-.227.992-.284 1.276-.198.48 1.19.538 2.267.14 3.23.824.91 1.25 1.987 1.25 3.263 0 .907-.114 1.7-.313 2.38-.227.71-.51 1.25-.85 1.673-.34.398-.766.766-1.277 1.05-.51.283-1.02.48-1.502.624-.482.112-1.02.198-1.617.283.54.453.824 1.22.824 2.24v3.345c0 .17.057.34.198.454.143.14.34.17.624.114 2.438-.795 4.45-2.27 5.982-4.395 1.56-2.098 2.326-4.48 2.326-7.117 0-2.21-.54-4.253-1.617-6.123-1.105-1.843-2.58-3.32-4.422-4.424C17.223 1.39 15.18.852 13 .852c-2.213 0-4.254.54-6.125 1.616C5.032 3.573 3.558 5.05 2.45 6.892 1.375 8.763.837 10.805.837 13.016c0 2.637.765 5.02 2.324 7.117" fill="#D9FFF7" fill-rule="evenodd"/></svg>
