<svg width="23" height="18" viewBox="0 0 23 18" xmlns="http://www.w3.org/2000/svg"><path d="M.157 9.284l5.836 5.836c.067.09.18.135.292.135.09 0 .202-.045.27-.135l.628-.606c.09-.09.134-.18.134-.292 0-.112-.045-.202-.134-.29L2.267 9.014l4.916-4.938c.09-.067.134-.18.134-.292 0-.09-.045-.202-.134-.27l-.63-.628c-.066-.09-.178-.134-.268-.134-.112 0-.225.044-.292.134L.157 8.723c-.09.067-.135.18-.135.292 0 .09.045.202.135.27zm8.26 7.9c.045.09.135.158.247.18l.763.225c.112.022.202.022.292-.046.11-.045.156-.134.2-.224l4.67-16.183c.045-.113.022-.202-.023-.315-.067-.09-.134-.157-.247-.18L13.535.42c-.09-.022-.202-.022-.292.045-.09.045-.157.135-.202.247L8.373 16.87c-.022.113-.022.203.045.315zm7.362-2.67l.628.606c.09.09.18.135.292.135.112 0 .202-.045.292-.135l5.835-5.836c.068-.067.113-.18.113-.27 0-.11-.045-.224-.113-.29l-5.835-5.837c-.09-.09-.18-.134-.292-.134-.113 0-.202.044-.292.134l-.63.63c-.088.066-.11.178-.11.268 0 .112.022.225.11.292l4.917 4.938-4.916 4.916c-.09.09-.113.18-.113.292 0 .113.023.202.112.292z" fill="#F7F7F7" fill-rule="evenodd"/></svg>
