<svg width="26" height="21" viewBox="0 0 26 21" xmlns="http://www.w3.org/2000/svg"><path d="M8.355 20.78c1.816 0 3.516-.284 5.133-.85 1.587-.597 2.948-1.363 4.082-2.327 1.105-.963 2.098-2.07 2.92-3.317.794-1.275 1.418-2.58 1.814-3.94.398-1.36.597-2.723.597-4.112v-.652c.992-.737 1.844-1.616 2.552-2.636-.993.396-1.956.68-2.95.765 1.107-.652 1.873-1.587 2.242-2.806-.993.595-2.07 1.02-3.233 1.247C20.49 1.075 19.244.537 17.77.537c-1.39 0-2.608.48-3.6 1.474-.992 1.02-1.503 2.21-1.503 3.63 0 .368.057.764.142 1.16-2.098-.084-4.055-.623-5.898-1.558-1.815-.964-3.375-2.212-4.65-3.77-.454.793-.71 1.643-.71 2.58 0 .85.228 1.67.625 2.437.425.737.964 1.33 1.672 1.814-.822-.03-1.588-.255-2.324-.652v.057c0 1.246.397 2.323 1.162 3.26.793.935 1.757 1.5 2.948 1.756-.453.114-.907.17-1.36.17-.284 0-.596-.027-.964-.084.34 1.02.934 1.87 1.813 2.524.88.68 1.872 1.02 2.977 1.02-1.87 1.475-3.97 2.183-6.35 2.183-.454 0-.85 0-1.22-.057 2.353 1.53 4.99 2.296 7.825 2.296" fill="#D9FFF7" fill-rule="evenodd"/></svg>
