<svg width="225" height="52" viewBox="0 0 225 52" xmlns="http://www.w3.org/2000/svg"><title>text--strong</title><path d="M6.938 38.563c-.542.416-1.1.734-1.672.953-.573.218-1.162.328-1.766.328-.896 0-1.526-.24-1.89-.72-.365-.478-.548-1.374-.548-2.687v-4.156c0-1.374.23-2.348.688-2.92.458-.574 1.25-.86 2.375-.86 1.23 0 2.23.594 3 1.78.458.647.844 1.126 1.156 1.44 1.022.915 2.21 1.603 3.564 2.06 1.354.46 2.896.69 4.625.69 1.5 0 2.697-.293 3.593-.876.895-.584 1.343-1.344 1.343-2.282 0-1.687-2.406-2.854-7.218-3.5-1.063-.125-1.896-.24-2.5-.343-3.626-.5-6.323-1.486-8.094-2.954-1.77-1.47-2.656-3.443-2.656-5.922 0-2.938 1.062-5.21 3.187-6.813C6.25 10.178 9.28 9.376 13.22 9.376c1.353 0 2.744.11 4.17.328 1.428.22 2.89.557 4.39 1.016.44-.522.902-.907 1.392-1.158.49-.25 1.036-.374 1.64-.374.855 0 1.506.265 1.954.796.448.532.672 1.328.672 2.39v3.845c0 .895-.23 1.587-.688 2.077-.458.49-1.104.734-1.938.734-.854 0-2.317-.744-4.39-2.233-2.073-1.49-4.15-2.235-6.235-2.235-1.625 0-2.885.266-3.78.797-.897.53-1.345 1.265-1.345 2.203 0 1.458 1.875 2.437 5.626 2.937 1.083.125 1.937.23 2.562.313 4.708.687 7.943 1.713 9.703 3.078 1.76 1.365 2.64 3.39 2.64 6.08 0 3.145-1.16 5.577-3.484 7.296-2.324 1.718-5.62 2.578-9.89 2.578-1.668 0-3.272-.11-4.814-.328-1.54-.22-3.03-.537-4.47-.953h.002zm44.5-26.688h9.53c1.438 0 2.46.26 3.063.78.605.522.907 1.387.907 2.595 0 1.23-.307 2.115-.92 2.656-.616.542-1.632.813-3.048.813h-9.532v8c0 2.25.343 3.79 1.03 4.624.688.833 1.897 1.25 3.626 1.25 1.625 0 3.54-.47 5.75-1.407 2.208-.937 3.687-1.406 4.437-1.406.855 0 1.59.34 2.204 1.017.615.677.922 1.495.922 2.453 0 1.604-1.453 3.068-4.36 4.39-2.905 1.324-6.202 1.985-9.89 1.985-2.146 0-4.03-.292-5.656-.875-1.625-.583-2.906-1.417-3.844-2.5-.687-.833-1.177-1.833-1.468-3-.292-1.167-.438-3.115-.438-5.844V18.72h-2.938c-1.416 0-2.42-.272-3.015-.814-.594-.54-.89-1.427-.89-2.656 0-1.23.29-2.1.874-2.61.585-.51 1.595-.765 3.032-.765h2.938V4.562c0-1.437.297-2.447.89-3.03.594-.584 1.58-.876 2.954-.876 1.375 0 2.36.292 2.953.875.594.585.89 1.595.89 3.032v7.313zM90.594 22.03v10.126h7.375c1.415 0 2.42.26 3.014.782.594.52.89 1.385.89 2.593 0 1.23-.296 2.116-.89 2.657-.593.542-1.6.813-3.015.813H80.5c-1.438 0-2.458-.27-3.063-.813-.604-.54-.906-1.427-.906-2.656 0-1.207.298-2.072.892-2.593.594-.52 1.62-.78 3.078-.78h2.375V16.968H81.53c-1.415 0-2.42-.267-3.014-.798-.594-.53-.89-1.412-.89-2.64 0-1.23.285-2.105.858-2.626.573-.52 1.59-.78 3.047-.78h6.657c.563 0 1 .12 1.313.358.313.24.47.568.47.985v4.624c2.27-2.438 4.39-4.177 6.358-5.22 1.97-1.04 4.09-1.562 6.36-1.562 2.062 0 3.697.464 4.906 1.39 1.208.928 1.812 2.173 1.812 3.736 0 1.208-.416 2.203-1.25 2.984-.833.78-1.906 1.172-3.22 1.172-.936 0-2.045-.344-3.327-1.032-1.282-.687-2.172-1.03-2.672-1.03-1 0-2.178.447-3.532 1.343-1.354.896-2.958 2.28-4.812 4.156zm39.812-6c-2.437 0-4.442.798-6.015 2.392-1.572 1.594-2.36 3.63-2.36 6.11 0 2.5.788 4.567 2.36 6.202 1.574 1.636 3.58 2.453 6.016 2.453 2.438 0 4.448-.817 6.03-2.453 1.585-1.635 2.376-3.703 2.376-6.203 0-2.478-.786-4.514-2.36-6.108-1.572-1.594-3.587-2.39-6.046-2.39zm0-6.593c5.063 0 9.167 1.417 12.313 4.25 3.145 2.834 4.718 6.47 4.718 10.907 0 4.458-1.573 8.104-4.72 10.937-3.145 2.835-7.25 4.25-12.312 4.25-5.04 0-9.135-1.415-12.28-4.25-3.147-2.832-4.72-6.478-4.72-10.936 0-4.438 1.578-8.073 4.735-10.907 3.157-2.833 7.245-4.25 12.266-4.25zm51.53 22.657h.408c1.166 0 2.04.286 2.625.86.582.572.874 1.43.874 2.577 0 1.23-.297 2.116-.89 2.657-.595.542-1.6.813-3.017.813h-7.687c-1.396 0-2.4-.27-3.016-.813-.614-.54-.922-1.427-.922-2.656 0-1.145.297-2.004.89-2.577.595-.573 1.485-.86 2.673-.86h.375v-9.03c0-2.5-.35-4.277-1.047-5.33-.698-1.05-1.86-1.577-3.484-1.577-1.73 0-3.142.63-4.236 1.89-1.093 1.26-1.64 2.933-1.64 5.017v9.03h.375c1.186 0 2.072.287 2.655.86.583.573.875 1.432.875 2.578 0 1.23-.302 2.116-.906 2.657-.604.542-1.604.813-3 .813h-7.75c-1.396 0-2.396-.27-3-.813-.604-.54-.906-1.427-.906-2.656 0-1.145.29-2.004.875-2.577.583-.573 1.468-.86 2.656-.86h.374V16.97h-.53c-1.127 0-1.98-.288-2.564-.86-.583-.574-.875-1.412-.875-2.516 0-1.23.302-2.115.906-2.656.605-.542 1.626-.813 3.064-.813h5.312c.584 0 1.026.115 1.328.344.302.228.453.56.453 1v2.436c.96-1.5 2.183-2.63 3.672-3.39 1.49-.76 3.213-1.14 5.17-1.14 3.335 0 5.82 1.01 7.454 3.03 1.636 2.02 2.453 5.104 2.453 9.25v10.438zm23.94-16.125c-2.043 0-3.735.738-5.08 2.217-1.343 1.48-2.015 3.365-2.015 5.657 0 2.25.673 4.11 2.017 5.578 1.344 1.47 3.036 2.203 5.078 2.203 2.063 0 3.766-.734 5.11-2.203 1.343-1.47 2.015-3.328 2.015-5.578 0-2.292-.672-4.177-2.016-5.657-1.343-1.48-3.046-2.218-5.11-2.218zm7.75-2.94v-1.624c0-.416.15-.734.452-.953.302-.22.755-.328 1.36-.328h5.093c1.44 0 2.45.266 3.032.797.584.53.875 1.4.875 2.61 0 1.124-.286 1.978-.86 2.562-.572.583-1.41.875-2.514.875h-.532V38.5c0 4.563-1.238 7.875-3.718 9.938-2.48 2.062-6.458 3.093-11.937 3.093-3.396 0-5.89-.332-7.484-1-1.593-.665-2.39-1.717-2.39-3.155 0-1 .323-1.812.97-2.438.645-.625 1.5-.937 2.56-.937.272 0 1.168.094 2.69.28 1.52.19 2.926.282 4.218.282 2.98 0 5.036-.562 6.17-1.687 1.137-1.125 1.704-3.146 1.704-6.063v-1.406c-1.48.854-2.942 1.485-4.39 1.89-1.448.407-2.953.61-4.516.61-4.187 0-7.61-1.307-10.265-3.922-2.656-2.614-3.984-5.974-3.984-10.078 0-4.23 1.39-7.708 4.172-10.437 2.78-2.73 6.34-4.095 10.672-4.095 1.875 0 3.52.297 4.938.89 1.416.594 2.645 1.516 3.687 2.766z" fill="#F7F7F7" fill-rule="evenodd"/></svg>