<svg width="112" height="47" viewBox="0 0 112 47" xmlns="http://www.w3.org/2000/svg"><title>text--the</title><path d="M14.528 8.752V46h10.048V8.752h13.696V.304H.832v8.448h13.696zM42.56.304V46h9.088V28.656c0-3.37.555-5.792 1.664-7.264 1.11-1.472 2.9-2.208 5.376-2.208 2.176 0 3.69.672 4.544 2.016.853 1.344 1.28 3.38 1.28 6.112V46H73.6V25.648c0-2.048-.18-3.915-.544-5.6-.363-1.685-.992-3.115-1.888-4.288-.896-1.173-2.123-2.09-3.68-2.752-1.557-.66-3.552-.992-5.984-.992-1.707 0-3.456.437-5.248 1.312-1.792.875-3.264 2.272-4.416 4.192h-.192V.304H42.56zm60.224 25.6H88c.043-.64.18-1.365.416-2.176.235-.81.64-1.58 1.216-2.304.576-.725 1.344-1.333 2.304-1.824.96-.49 2.165-.736 3.616-.736 2.22 0 3.872.597 4.96 1.792s1.845 2.944 2.272 5.248zM88 31.664h23.872c.17-2.56-.043-5.013-.64-7.36-.597-2.347-1.568-4.437-2.912-6.272-1.344-1.835-3.06-3.296-5.152-4.384-2.09-1.088-4.544-1.632-7.36-1.632-2.517 0-4.81.448-6.88 1.344-2.07.896-3.85 2.123-5.344 3.68-1.493 1.557-2.645 3.403-3.456 5.536-.81 2.133-1.216 4.437-1.216 6.912 0 2.56.395 4.907 1.184 7.04.79 2.133 1.91 3.968 3.36 5.504 1.45 1.536 3.22 2.72 5.312 3.552 2.09.832 4.437 1.248 7.04 1.248 3.755 0 6.955-.853 9.6-2.56 2.645-1.707 4.608-4.544 5.888-8.512h-8c-.3 1.024-1.11 1.995-2.432 2.912-1.323.917-2.9 1.376-4.736 1.376-2.56 0-4.523-.66-5.888-1.984-1.365-1.323-2.112-3.456-2.24-6.4z" fill="#F7F7F7" fill-rule="evenodd"/></svg>