<svg width="244" height="47" viewBox="0 0 244 47" xmlns="http://www.w3.org/2000/svg"><title>text--element</title><path d="M24.728 25.904H9.944c.043-.64.18-1.365.416-2.176.235-.81.64-1.58 1.216-2.304.576-.725 1.344-1.333 2.304-1.824.96-.49 2.165-.736 3.616-.736 2.22 0 3.872.597 4.96 1.792s1.845 2.944 2.272 5.248zm-14.784 5.76h23.872c.17-2.56-.043-5.013-.64-7.36-.597-2.347-1.568-4.437-2.912-6.272-1.344-1.835-3.06-3.296-5.152-4.384-2.09-1.088-4.544-1.632-7.36-1.632-2.517 0-4.81.448-6.88 1.344-2.07.896-3.85 2.123-5.344 3.68-1.493 1.557-2.645 3.403-3.456 5.536-.81 2.133-1.216 4.437-1.216 6.912 0 2.56.395 4.907 1.184 7.04.79 2.133 1.91 3.968 3.36 5.504 1.45 1.536 3.22 2.72 5.312 3.552 2.09.832 4.437 1.248 7.04 1.248 3.755 0 6.955-.853 9.6-2.56 2.645-1.707 4.608-4.544 5.888-8.512h-8c-.3 1.024-1.11 1.995-2.432 2.912-1.323.917-2.9 1.376-4.736 1.376-2.56 0-4.523-.66-5.888-1.984-1.365-1.323-2.112-3.456-2.24-6.4zM39.448.304V46h9.088V.304h-9.088zm38.528 25.6H63.192c.043-.64.18-1.365.416-2.176.235-.81.64-1.58 1.216-2.304.576-.725 1.344-1.333 2.304-1.824.96-.49 2.165-.736 3.616-.736 2.22 0 3.872.597 4.96 1.792s1.845 2.944 2.272 5.248zm-14.784 5.76h23.872c.17-2.56-.043-5.013-.64-7.36-.597-2.347-1.568-4.437-2.912-6.272-1.344-1.835-3.06-3.296-5.152-4.384-2.09-1.088-4.544-1.632-7.36-1.632-2.517 0-4.81.448-6.88 1.344-2.07.896-3.85 2.123-5.344 3.68-1.493 1.557-2.645 3.403-3.456 5.536-.81 2.133-1.216 4.437-1.216 6.912 0 2.56.395 4.907 1.184 7.04.79 2.133 1.91 3.968 3.36 5.504 1.45 1.536 3.22 2.72 5.312 3.552 2.09.832 4.437 1.248 7.04 1.248 3.755 0 6.955-.853 9.6-2.56 2.645-1.707 4.608-4.544 5.888-8.512h-8c-.3 1.024-1.11 1.995-2.432 2.912-1.323.917-2.9 1.376-4.736 1.376-2.56 0-4.523-.66-5.888-1.984-1.365-1.323-2.112-3.456-2.24-6.4zm29.504-18.752V46h9.088V26.8c0-1.62.235-2.933.704-3.936.47-1.003 1.035-1.77 1.696-2.304.66-.533 1.344-.896 2.048-1.088.704-.192 1.27-.288 1.696-.288 1.45 0 2.55.245 3.296.736.747.49 1.28 1.14 1.6 1.952.32.81.5 1.696.544 2.656.043.96.064 1.93.064 2.912V46h9.088V27.568c0-1.024.075-2.037.224-3.04.15-1.003.448-1.9.896-2.688.448-.79 1.067-1.43 1.856-1.92.79-.49 1.824-.736 3.104-.736s2.293.213 3.04.64c.747.427 1.312 1.003 1.696 1.728.384.725.62 1.58.704 2.56.085.98.128 2.027.128 3.136V46h9.088V23.856c0-2.133-.3-3.957-.896-5.472-.597-1.515-1.43-2.74-2.496-3.68-1.067-.94-2.347-1.62-3.84-2.048-1.493-.427-3.115-.64-4.864-.64-2.304 0-4.3.555-5.984 1.664-1.685 1.11-3.02 2.39-4 3.84-.896-2.048-2.208-3.477-3.936-4.288-1.728-.81-3.637-1.216-5.728-1.216-2.176 0-4.107.47-5.792 1.408-1.685.94-3.125 2.26-4.32 3.968h-.128v-4.48h-8.576zm80 12.992h-14.784c.043-.64.18-1.365.416-2.176.235-.81.64-1.58 1.216-2.304.576-.725 1.344-1.333 2.304-1.824.96-.49 2.165-.736 3.616-.736 2.22 0 3.872.597 4.96 1.792s1.845 2.944 2.272 5.248zm-14.784 5.76h23.872c.17-2.56-.043-5.013-.64-7.36-.597-2.347-1.568-4.437-2.912-6.272-1.344-1.835-3.06-3.296-5.152-4.384-2.09-1.088-4.544-1.632-7.36-1.632-2.517 0-4.81.448-6.88 1.344-2.07.896-3.85 2.123-5.344 3.68-1.493 1.557-2.645 3.403-3.456 5.536-.81 2.133-1.216 4.437-1.216 6.912 0 2.56.395 4.907 1.184 7.04.79 2.133 1.91 3.968 3.36 5.504 1.45 1.536 3.22 2.72 5.312 3.552 2.09.832 4.437 1.248 7.04 1.248 3.755 0 6.955-.853 9.6-2.56 2.645-1.707 4.608-4.544 5.888-8.512h-8c-.3 1.024-1.11 1.995-2.432 2.912-1.323.917-2.9 1.376-4.736 1.376-2.56 0-4.523-.66-5.888-1.984-1.365-1.323-2.112-3.456-2.24-6.4zm29.248-18.752V46h9.088V28.656c0-3.37.555-5.792 1.664-7.264 1.11-1.472 2.9-2.208 5.376-2.208 2.176 0 3.69.672 4.544 2.016.853 1.344 1.28 3.38 1.28 6.112V46h9.088V25.648c0-2.048-.18-3.915-.544-5.6-.363-1.685-.992-3.115-1.888-4.288-.896-1.173-2.123-2.09-3.68-2.752-1.557-.66-3.552-.992-5.984-.992-1.92 0-3.797.437-5.632 1.312-1.835.875-3.328 2.272-4.48 4.192h-.192v-4.608h-8.64zm49.472 0v-9.92h-9.088v9.92h-5.504v6.08h5.504v19.52c0 1.664.277 3.008.832 4.032.555 1.024 1.312 1.813 2.272 2.368.96.555 2.07.928 3.328 1.12 1.26.192 2.592.288 4 .288.896 0 1.813-.02 2.752-.064.94-.043 1.792-.128 2.56-.256v-7.04c-.427.085-.875.15-1.344.192-.47.043-.96.064-1.472.064-1.536 0-2.56-.256-3.072-.768s-.768-1.536-.768-3.072V18.992h6.656v-6.08h-6.656z" fill="#F7F7F7" fill-rule="evenodd"/></svg>