<?xml version="1.0" encoding="UTF-8" standalone="no"?>
<svg width="201px" height="35px" viewBox="0 0 201 35" version="1.1" xmlns="http://www.w3.org/2000/svg" xmlns:xlink="http://www.w3.org/1999/xlink">
    <!-- Generator: Sketch 3.7 (28169) - http://www.bohemiancoding.com/sketch -->
    <title>strong</title>
    <desc>Created with Sketch.</desc>
    <defs></defs>
    
    <g id="Templates" stroke="none" stroke-width="1" fill="none" fill-rule="evenodd">
        <g id="Base-320" transform="translate(-49.000000, -282.000000)" fill="#000000">
            <g id="strong" transform="translate(49.000000, 282.000000)">
                <path d="M193.696289,13.0595703 L180.325195,6.72265625 C179.600582,6.36718572 179.084474,6.00830259 178.776855,5.64599609 C178.469237,5.28368959 178.31543,4.85644777 178.31543,4.36425781 C178.31543,3.79003619 178.486326,3.32519709 178.828125,2.96972656 C179.169924,2.61425604 179.627927,2.43652344 180.202148,2.43652344 C180.4209,2.43652344 180.670409,2.47753865 180.950684,2.55957031 C181.230958,2.64160197 181.630857,2.79882696 182.150391,3.03125 L198.392578,10.6191406 L198.556641,10.7216797 C200.074226,11.4189488 200.833008,12.2255814 200.833008,13.1416016 C200.833008,14.0576218 200.10157,14.8437467 198.638672,15.5 C198.501952,15.5820317 198.392579,15.6367186 198.310547,15.6640625 L182.088867,23.1083984 C181.678709,23.2998056 181.326662,23.436523 181.032715,23.5185547 C180.738768,23.6005863 180.461915,23.6416016 180.202148,23.6416016 C179.627927,23.6416016 179.169924,23.4672869 178.828125,23.1186523 C178.486326,22.7700178 178.31543,22.3017608 178.31543,21.7138672 C178.31543,21.2216772 178.462401,20.8012713 178.756348,20.4526367 C179.050294,20.1040022 179.573238,19.7519549 180.325195,19.3964844 L193.696289,13.0595703 Z" id="Path"></path>
                <path d="M168.020508,8.95800781 L168.020508,7.89160156 C168.020508,7.6181627 168.119628,7.40966869 168.317871,7.26611328 C168.516114,7.12255788 168.813475,7.05078125 169.209961,7.05078125 L172.552734,7.05078125 C173.496098,7.05078125 174.159178,7.22509591 174.541992,7.57373047 C174.924807,7.92236502 175.116211,8.4931601 175.116211,9.28613281 C175.116211,10.0244178 174.928225,10.584959 174.552246,10.9677734 C174.176268,11.3505879 173.62598,11.5419922 172.901367,11.5419922 L172.552734,11.5419922 L172.552734,25.671875 C172.552734,28.6660306 171.739266,30.839837 170.112305,32.1933594 C168.485343,33.5468818 165.874041,34.2236328 162.27832,34.2236328 C160.049794,34.2236328 158.412603,34.004885 157.366699,33.5673828 C156.320796,33.1298806 155.797852,32.4394578 155.797852,31.4960938 C155.797852,30.8398405 156.009764,30.3066427 156.433594,29.8964844 C156.857424,29.4863261 157.417965,29.28125 158.115234,29.28125 C158.29297,29.28125 158.880854,29.3427728 159.878906,29.4658203 C160.876958,29.5888678 161.7998,29.6503906 162.647461,29.6503906 C164.602549,29.6503906 165.952633,29.2812537 166.697754,28.5429688 C167.442875,27.8046838 167.81543,26.4785252 167.81543,24.5644531 L167.81543,23.6416016 C166.844722,24.2021512 165.884282,24.6157213 164.934082,24.8823242 C163.983882,25.1489271 162.996099,25.2822266 161.970703,25.2822266 C159.222643,25.2822266 156.977059,24.424325 155.233887,22.7084961 C153.490714,20.9926672 152.619141,18.7880994 152.619141,16.0947266 C152.619141,13.3193221 153.531729,11.0361418 155.356934,9.24511719 C157.182138,7.45409261 159.516587,6.55859375 162.360352,6.55859375 C163.590826,6.55859375 164.670894,6.75341602 165.600586,7.14306641 C166.530278,7.53271679 167.336911,8.13769121 168.020508,8.95800781 Z M162.93457,10.8857422 C161.59472,10.8857422 160.483891,11.3710889 159.602051,12.3417969 C158.72021,13.3125049 158.279297,14.5497972 158.279297,16.0537109 C158.279297,17.5302808 158.72021,18.7504835 159.602051,19.7143555 C160.483891,20.6782275 161.59472,21.1601562 162.93457,21.1601562 C164.288093,21.1601562 165.405757,20.6782275 166.287598,19.7143555 C167.169438,18.7504835 167.610352,17.5302808 167.610352,16.0537109 C167.610352,14.5497972 167.169438,13.3125049 166.287598,12.3417969 C165.405757,11.3710889 164.288093,10.8857422 162.93457,10.8857422 Z" id="Combined-Shape"></path>
                <path d="M147.225586,21.4677734 L147.492188,21.4677734 C148.257816,21.4677734 148.832029,21.6557598 149.214844,22.0317383 C149.597658,22.4077167 149.789062,22.9716759 149.789062,23.7236328 C149.789062,24.5302775 149.59424,25.1113263 149.20459,25.4667969 C148.814939,25.8222674 148.155278,26 147.225586,26 L142.180664,26 C141.264644,26 140.604982,25.8222674 140.20166,25.4667969 C139.798338,25.1113263 139.59668,24.5302775 139.59668,23.7236328 C139.59668,22.9716759 139.791502,22.4077167 140.181152,22.0317383 C140.570803,21.6557598 141.15527,21.4677734 141.93457,21.4677734 L142.180664,21.4677734 L142.180664,15.5410156 C142.180664,13.9003824 141.951662,12.7348667 141.493652,12.0444336 C141.035642,11.3540005 140.273443,11.0087891 139.207031,11.0087891 C138.07226,11.0087891 137.146,11.4223591 136.428223,12.2495117 C135.710446,13.0766643 135.351562,14.1738213 135.351562,15.5410156 L135.351562,21.4677734 L135.597656,21.4677734 C136.376957,21.4677734 136.958006,21.6557598 137.34082,22.0317383 C137.723635,22.4077167 137.915039,22.9716759 137.915039,23.7236328 C137.915039,24.5302775 137.716799,25.1113263 137.320312,25.4667969 C136.923826,25.8222674 136.267583,26 135.351562,26 L130.265625,26 C129.349605,26 128.693361,25.8222674 128.296875,25.4667969 C127.900389,25.1113263 127.702148,24.5302775 127.702148,23.7236328 C127.702148,22.9716759 127.893553,22.4077167 128.276367,22.0317383 C128.659182,21.6557598 129.24023,21.4677734 130.019531,21.4677734 L130.265625,21.4677734 L130.265625,11.5419922 L129.916992,11.5419922 C129.178707,11.5419922 128.618166,11.3540058 128.235352,10.9780273 C127.852537,10.6020489 127.661133,10.0517614 127.661133,9.32714844 C127.661133,8.52050378 127.859373,7.9394549 128.255859,7.58398438 C128.652346,7.22851385 129.322261,7.05078125 130.265625,7.05078125 L133.751953,7.05078125 C134.134768,7.05078125 134.425292,7.12597581 134.623535,7.27636719 C134.821778,7.42675856 134.920898,7.64550638 134.920898,7.93261719 L134.920898,9.53222656 C135.549808,8.54784664 136.353022,7.80615484 137.330566,7.30712891 C138.30811,6.80810297 139.439447,6.55859375 140.724609,6.55859375 C142.91212,6.55859375 144.542475,7.22167306 145.615723,8.54785156 C146.68897,9.87403007 147.225586,11.8974473 147.225586,14.6181641 L147.225586,21.4677734 Z" id="Path"></path>
                <path d="M113.408203,6.59960938 C116.730485,6.59960938 119.423818,7.52928758 121.488281,9.38867188 C123.552745,11.2480562 124.584961,13.6337745 124.584961,16.5458984 C124.584961,19.4716943 123.552745,21.8642485 121.488281,23.7236328 C119.423818,25.5830171 116.730485,26.5126953 113.408203,26.5126953 C110.099593,26.5126953 107.413096,25.5830171 105.348633,23.7236328 C103.284169,21.8642485 102.251953,19.4716943 102.251953,16.5458984 C102.251953,13.6337745 103.287587,11.2480562 105.358887,9.38867188 C107.430186,7.52928758 110.113265,6.59960938 113.408203,6.59960938 Z M113.408203,10.9267578 C111.808586,10.9267578 110.492681,11.4497018 109.460449,12.4956055 C108.428217,13.5415091 107.912109,14.8779216 107.912109,16.5048828 C107.912109,18.145516 108.428217,19.502436 109.460449,20.5756836 C110.492681,21.6489311 111.808586,22.1855469 113.408203,22.1855469 C115.00782,22.1855469 116.327143,21.6489311 117.366211,20.5756836 C118.405279,19.502436 118.924805,18.145516 118.924805,16.5048828 C118.924805,14.8779216 118.408697,13.5415091 117.376465,12.4956055 C116.344233,11.4497018 115.021492,10.9267578 113.408203,10.9267578 Z" id="Combined-Shape"></path>
                <path d="M87.28125,14.8642578 L87.28125,21.5087891 L92.1210938,21.5087891 C93.0507859,21.5087891 93.7104473,21.6796858 94.1000977,22.0214844 C94.489748,22.363283 94.6845703,22.9306601 94.6845703,23.7236328 C94.6845703,24.5302775 94.489748,25.1113263 94.1000977,25.4667969 C93.7104473,25.8222674 93.0507859,26 92.1210938,26 L80.6572266,26 C79.7138625,26 79.0439473,25.8222674 78.6474609,25.4667969 C78.2509746,25.1113263 78.0527344,24.5302775 78.0527344,23.7236328 C78.0527344,22.9306601 78.2475566,22.363283 78.637207,22.0214844 C79.0268574,21.6796858 79.7001905,21.5087891 80.6572266,21.5087891 L82.2158203,21.5087891 L82.2158203,11.5419922 L81.3339844,11.5419922 C80.4042922,11.5419922 79.7446309,11.3676775 79.3549805,11.019043 C78.9653301,10.6704084 78.7705078,10.0927775 78.7705078,9.28613281 C78.7705078,8.47948815 78.9584942,7.90527515 79.3344727,7.56347656 C79.7104511,7.22167798 80.3769483,7.05078125 81.3339844,7.05078125 L85.7021484,7.05078125 C86.0712909,7.05078125 86.3583974,7.12939375 86.5634766,7.28662109 C86.7685557,7.44384844 86.8710938,7.65917832 86.8710938,7.93261719 L86.8710938,10.9677734 C88.3613356,9.36815606 89.7524349,8.22656592 91.0444336,7.54296875 C92.3364322,6.85937158 93.7275316,6.51757812 95.2177734,6.51757812 C96.5712958,6.51757812 97.6445273,6.8217743 98.4375,7.43017578 C99.2304727,8.03857726 99.6269531,8.85546362 99.6269531,9.88085938 C99.6269531,10.6738321 99.3535184,11.3266576 98.8066406,11.8393555 C98.2597629,12.3520533 97.5556684,12.6083984 96.6943359,12.6083984 C96.0790985,12.6083984 95.3510784,12.3828148 94.5102539,11.9316406 C93.6694294,11.4804665 93.0849626,11.2548828 92.7568359,11.2548828 C92.1005827,11.2548828 91.3281294,11.5488252 90.4394531,12.1367188 C89.5507768,12.7246123 88.498053,13.6337829 87.28125,14.8642578 L87.28125,14.8642578 Z" id="Path"></path>
                <path d="M61.5849609,8.19921875 L67.8398438,8.19921875 C68.7832078,8.19921875 69.453123,8.37011548 69.8496094,8.71191406 C70.2460957,9.05371265 70.4443359,9.62108979 70.4443359,10.4140625 C70.4443359,11.2207072 70.2426778,11.801756 69.8393555,12.1572266 C69.4360331,12.5126971 68.7695359,12.6904297 67.8398438,12.6904297 L61.5849609,12.6904297 L61.5849609,17.9404297 C61.5849609,19.4169996 61.8105446,20.4287082 62.2617188,20.9755859 C62.7128929,21.5224637 63.5058537,21.7958984 64.640625,21.7958984 C65.7070366,21.7958984 66.9648365,21.4882843 68.4140625,20.8730469 C69.8632885,20.2578094 70.8339819,19.9501953 71.3261719,19.9501953 C71.8867216,19.9501953 72.3686503,20.1723611 72.7719727,20.6166992 C73.175295,21.0610374 73.3769531,21.5976531 73.3769531,22.2265625 C73.3769531,23.2793021 72.4233494,24.2397418 70.5161133,25.1079102 C68.6088772,25.9760786 66.4453246,26.4101562 64.0253906,26.4101562 C62.6171805,26.4101562 61.3798881,26.2187519 60.3134766,25.8359375 C59.247065,25.4531231 58.4062531,24.9062536 57.7910156,24.1953125 C57.3398415,23.6484348 57.0185556,22.9921913 56.8271484,22.2265625 C56.6357412,21.4609337 56.5400391,20.1826261 56.5400391,18.3916016 L56.5400391,17.9404297 L56.5400391,12.6904297 L54.6123047,12.6904297 C53.6826125,12.6904297 53.0229512,12.5126971 52.6333008,12.1572266 C52.2436504,11.801756 52.0488281,11.2207072 52.0488281,10.4140625 C52.0488281,9.60741784 52.2402325,9.03662277 52.6230469,8.70166016 C53.0058613,8.36669754 53.6689406,8.19921875 54.6123047,8.19921875 L56.5400391,8.19921875 L56.5400391,3.40039062 C56.5400391,2.45702653 56.7348613,1.79394723 57.1245117,1.41113281 C57.5141621,1.0283184 58.1601517,0.836914062 59.0625,0.836914062 C59.9648483,0.836914062 60.6108379,1.0283184 61.0004883,1.41113281 C61.3901387,1.79394723 61.5849609,2.45702653 61.5849609,3.40039062 L61.5849609,8.19921875 Z" id="Path"></path>
                <path d="M32.3818359,25.7128906 C32.0263654,25.9863295 31.6606464,26.1948235 31.284668,26.3383789 C30.9086895,26.4819343 30.5224629,26.5537109 30.1259766,26.5537109 C29.538083,26.5537109 29.1245129,26.3964859 28.8852539,26.0820312 C28.6459949,25.7675766 28.5263672,25.1796918 28.5263672,24.3183594 L28.5263672,21.5908203 C28.5263672,20.6884721 28.6767563,20.0493183 28.9775391,19.6733398 C29.2783218,19.2973614 29.7978479,19.109375 30.5361328,19.109375 C31.3427775,19.109375 31.9990209,19.4990195 32.5048828,20.2783203 C32.8056656,20.7021506 33.0585927,21.0166005 33.2636719,21.2216797 C33.9335971,21.8232452 34.7128862,22.2744126 35.6015625,22.5751953 C36.4902388,22.8759781 37.5019475,23.0263672 38.6367188,23.0263672 C39.6210987,23.0263672 40.4072236,22.8349629 40.9951172,22.4521484 C41.5830108,22.069334 41.8769531,21.5703156 41.8769531,20.9550781 C41.8769531,19.8476507 40.2978674,19.0820334 37.1396484,18.6582031 C36.4423793,18.5761715 35.8955098,18.5009769 35.4990234,18.4326172 C33.1201053,18.1044905 31.3496152,17.4585009 30.1875,16.4946289 C29.0253848,15.5307569 28.4443359,14.2353597 28.4443359,12.6083984 C28.4443359,10.6806544 29.1415946,9.19043495 30.5361328,8.13769531 C31.930671,7.08495567 33.919909,6.55859375 36.5039062,6.55859375 C37.3925826,6.55859375 38.3051711,6.63037038 39.2416992,6.77392578 C40.1782273,6.91748119 41.138667,7.13964693 42.1230469,7.44042969 C42.4101577,7.0986311 42.7143539,6.84570395 43.0356445,6.68164062 C43.3569352,6.5175773 43.7158183,6.43554688 44.1123047,6.43554688 C44.6728544,6.43554688 45.1000962,6.60986154 45.394043,6.95849609 C45.6879898,7.30713065 45.8349609,7.83007464 45.8349609,8.52734375 L45.8349609,11.0498047 C45.8349609,11.6376983 45.6845718,12.0922835 45.3837891,12.4135742 C45.0830063,12.7348649 44.6591824,12.8955078 44.1123047,12.8955078 C43.551755,12.8955078 42.5913154,12.4067432 41.230957,11.4291992 C39.8705987,10.4516553 38.5068428,9.96289062 37.1396484,9.96289062 C36.0732369,9.96289062 35.2460967,10.1372053 34.6582031,10.4858398 C34.0703096,10.8344744 33.7763672,11.3164032 33.7763672,11.9316406 C33.7763672,12.8886767 35.0068236,13.5312484 37.4677734,13.859375 C38.1787145,13.9414067 38.7392558,14.0097654 39.1494141,14.0644531 C42.2392733,14.5156273 44.3618106,15.1889604 45.5170898,16.0844727 C46.6723691,16.9799849 47.25,18.3095615 47.25,20.0732422 C47.25,22.1377056 46.4878006,23.7338811 44.9633789,24.8618164 C43.4389572,25.9897517 41.2754046,26.5537109 38.4726562,26.5537109 C37.3789008,26.5537109 36.3261769,26.4819343 35.3144531,26.3383789 C34.3027293,26.1948235 33.3252,25.9863295 32.3818359,25.7128906 L32.3818359,25.7128906 Z" id="Path"></path>
                <path d="M7.97753906,13.0595703 L21.328125,19.3964844 C22.0800819,19.7519549 22.6064438,20.1040022 22.9072266,20.4526367 C23.2080093,20.8012713 23.3583984,21.2216772 23.3583984,21.7138672 C23.3583984,22.2880888 23.1806658,22.7529279 22.8251953,23.1083984 C22.4697248,23.463869 21.9980498,23.6416016 21.4101562,23.6416016 C21.1640613,23.6416016 20.8940444,23.6005863 20.6000977,23.5185547 C20.3061509,23.436523 19.9472677,23.2998056 19.5234375,23.1083984 L3.36328125,15.6640625 C3.28124959,15.6230467 3.15136808,15.5683597 2.97363281,15.5 C1.52440682,14.8300748 0.799804688,14.0439498 0.799804688,13.1416016 C0.799804688,12.2255814 1.55858616,11.4189488 3.07617188,10.7216797 L3.24023438,10.6191406 L19.5234375,3.03125 C20.0703152,2.78515502 20.4736315,2.62451209 20.7333984,2.54931641 C20.9931654,2.47412072 21.218749,2.43652344 21.4101562,2.43652344 C21.9980498,2.43652344 22.4697248,2.61425604 22.8251953,2.96972656 C23.1806658,3.32519709 23.3583984,3.79003619 23.3583984,4.36425781 C23.3583984,4.85644777 23.2045914,5.28368959 22.8969727,5.64599609 C22.5893539,6.00830259 22.0664099,6.36718572 21.328125,6.72265625 L7.97753906,13.0595703 Z" id="Path"></path>
            </g>
        </g>
    </g>
</svg>