<?xml version="1.0" encoding="UTF-8" standalone="no"?>
<svg width="225px" height="52px" viewBox="0 0 225 52" version="1.1" xmlns="http://www.w3.org/2000/svg" xmlns:xlink="http://www.w3.org/1999/xlink">
    <!-- Generator: Sketch 3.7 (28169) - http://www.bohemiancoding.com/sketch -->
    <title>text-strong</title>
    <desc>Created with Sketch.</desc>
    <defs></defs>
    <g id="Templates" stroke="none" stroke-width="1" fill="none" fill-rule="evenodd">
        <g id="Base-320" transform="translate(-58.000000, -135.000000)" fill="#F7F7F7">
            <path d="M64.9375,173.5625 C64.3958306,173.979169 63.8385445,174.296874 63.265625,174.515625 C62.6927055,174.734376 62.1041697,174.84375 61.5,174.84375 C60.6041622,174.84375 59.9739602,174.604169 59.609375,174.125 C59.2447898,173.645831 59.0625,172.750007 59.0625,171.4375 L59.0625,167.28125 C59.0625,165.906243 59.2916644,164.932295 59.75,164.359375 C60.2083356,163.786455 60.9999944,163.5 62.125,163.5 C63.3541728,163.5 64.3541628,164.093744 65.125,165.28125 C65.5833356,165.927087 65.9687484,166.406248 66.28125,166.71875 C67.3020884,167.635421 68.4895766,168.322914 69.84375,168.78125 C71.1979234,169.239586 72.7395747,169.46875 74.46875,169.46875 C75.9687575,169.46875 77.1666622,169.177086 78.0625,168.59375 C78.9583378,168.010414 79.40625,167.250005 79.40625,166.3125 C79.40625,164.624992 77.0000241,163.458337 72.1875,162.8125 C71.1249947,162.687499 70.2916697,162.572917 69.6875,162.46875 C66.0624819,161.968748 63.3645922,160.984382 61.59375,159.515625 C59.8229078,158.046868 58.9375,156.072929 58.9375,153.59375 C58.9375,150.656235 59.9999894,148.385425 62.125,146.78125 C64.2500106,145.177075 67.2812303,144.375 71.21875,144.375 C72.5729234,144.375 73.9635345,144.484374 75.390625,144.703125 C76.8177155,144.921876 78.2812425,145.260414 79.78125,145.71875 C80.2187522,145.197914 80.6822892,144.812501 81.171875,144.5625 C81.6614608,144.312499 82.2083303,144.1875 82.8125,144.1875 C83.6666709,144.1875 84.3177061,144.453122 84.765625,144.984375 C85.2135439,145.515628 85.4375,146.312495 85.4375,147.375 L85.4375,151.21875 C85.4375,152.114588 85.2083356,152.807289 84.75,153.296875 C84.2916644,153.786461 83.6458375,154.03125 82.8125,154.03125 C81.9583291,154.03125 80.494802,153.286466 78.421875,151.796875 C76.348948,150.307284 74.2708437,149.5625 72.1875,149.5625 C70.5624919,149.5625 69.3020878,149.828122 68.40625,150.359375 C67.5104122,150.890628 67.0625,151.624995 67.0625,152.5625 C67.0625,154.020841 68.9374813,154.999998 72.6875,155.5 C73.7708387,155.625001 74.6249969,155.729166 75.25,155.8125 C79.9583569,156.500003 83.1926995,157.526035 84.953125,158.890625 C86.7135505,160.255215 87.59375,162.281237 87.59375,164.96875 C87.59375,168.114599 86.4323033,170.546866 84.109375,172.265625 C81.7864467,173.984384 78.4896047,174.84375 74.21875,174.84375 C72.552075,174.84375 70.9479244,174.734376 69.40625,174.515625 C67.8645756,174.296874 66.3750072,173.979169 64.9375,173.5625 L64.9375,173.5625 Z M109.4375,146.875 L118.96875,146.875 C120.406257,146.875 121.42708,147.135414 122.03125,147.65625 C122.63542,148.177086 122.9375,149.041661 122.9375,150.25 C122.9375,151.479173 122.630211,152.364581 122.015625,152.90625 C121.401039,153.447919 120.385424,153.71875 118.96875,153.71875 L109.4375,153.71875 L109.4375,161.71875 C109.4375,163.968761 109.781247,165.510413 110.46875,166.34375 C111.156253,167.177087 112.364575,167.59375 114.09375,167.59375 C115.718758,167.59375 117.635406,167.125005 119.84375,166.1875 C122.052094,165.249995 123.531246,164.78125 124.28125,164.78125 C125.135421,164.78125 125.869789,165.119788 126.484375,165.796875 C127.098961,166.473962 127.40625,167.291662 127.40625,168.25 C127.40625,169.854175 125.95314,171.317702 123.046875,172.640625 C120.14061,173.963548 116.843768,174.625 113.15625,174.625 C111.010406,174.625 109.125008,174.333336 107.5,173.75 C105.874992,173.166664 104.593755,172.333339 103.65625,171.25 C102.968747,170.416663 102.479168,169.416673 102.1875,168.25 C101.895832,167.083327 101.75,165.13543 101.75,162.40625 L101.75,161.71875 L101.75,153.71875 L98.8125,153.71875 C97.3958262,153.71875 96.390628,153.447919 95.796875,152.90625 C95.203122,152.364581 94.90625,151.479173 94.90625,150.25 C94.90625,149.020827 95.1979137,148.151044 95.78125,147.640625 C96.3645863,147.130206 97.3749928,146.875 98.8125,146.875 L101.75,146.875 L101.75,139.5625 C101.75,138.124993 102.046872,137.114586 102.640625,136.53125 C103.234378,135.947914 104.218743,135.65625 105.59375,135.65625 C106.968757,135.65625 107.953122,135.947914 108.546875,136.53125 C109.140628,137.114586 109.4375,138.124993 109.4375,139.5625 L109.4375,146.875 Z M148.59375,157.03125 L148.59375,167.15625 L155.96875,167.15625 C157.385424,167.15625 158.390622,167.416664 158.984375,167.9375 C159.578128,168.458336 159.875,169.322911 159.875,170.53125 C159.875,171.760423 159.578128,172.645831 158.984375,173.1875 C158.390622,173.729169 157.385424,174 155.96875,174 L138.5,174 C137.062493,174 136.04167,173.729169 135.4375,173.1875 C134.83333,172.645831 134.53125,171.760423 134.53125,170.53125 C134.53125,169.322911 134.828122,168.458336 135.421875,167.9375 C136.015628,167.416664 137.041659,167.15625 138.5,167.15625 L140.875,167.15625 L140.875,151.96875 L139.53125,151.96875 C138.114576,151.96875 137.109378,151.703128 136.515625,151.171875 C135.921872,150.640622 135.625,149.760423 135.625,148.53125 C135.625,147.302077 135.911455,146.427086 136.484375,145.90625 C137.057295,145.385414 138.072909,145.125 139.53125,145.125 L146.1875,145.125 C146.750003,145.125 147.187498,145.24479 147.5,145.484375 C147.812502,145.72396 147.96875,146.052081 147.96875,146.46875 L147.96875,151.09375 C150.239595,148.656238 152.359365,146.916672 154.328125,145.875 C156.296885,144.833328 158.416655,144.3125 160.6875,144.3125 C162.75001,144.3125 164.385411,144.776037 165.59375,145.703125 C166.802089,146.630213 167.40625,147.874992 167.40625,149.4375 C167.40625,150.645839 166.989587,151.640621 166.15625,152.421875 C165.322913,153.203129 164.250007,153.59375 162.9375,153.59375 C161.999995,153.59375 160.890631,153.250003 159.609375,152.5625 C158.328119,151.874997 157.437502,151.53125 156.9375,151.53125 C155.937495,151.53125 154.760423,151.979162 153.40625,152.875 C152.052077,153.770838 150.447926,155.156241 148.59375,157.03125 L148.59375,157.03125 Z M188.40625,151.03125 C185.968738,151.03125 183.96355,151.828117 182.390625,153.421875 C180.8177,155.015633 180.03125,157.052071 180.03125,159.53125 C180.03125,162.031262 180.8177,164.09895 182.390625,165.734375 C183.96355,167.3698 185.968738,168.1875 188.40625,168.1875 C190.843762,168.1875 192.854159,167.3698 194.4375,165.734375 C196.020841,164.09895 196.8125,162.031262 196.8125,159.53125 C196.8125,157.052071 196.02605,155.015633 194.453125,153.421875 C192.8802,151.828117 190.864596,151.03125 188.40625,151.03125 L188.40625,151.03125 Z M188.40625,144.4375 C193.468775,144.4375 197.572901,145.854152 200.71875,148.6875 C203.864599,151.520848 205.4375,155.156228 205.4375,159.59375 C205.4375,164.052106 203.864599,167.697902 200.71875,170.53125 C197.572901,173.364598 193.468775,174.78125 188.40625,174.78125 C183.364558,174.78125 179.270849,173.364598 176.125,170.53125 C172.979151,167.697902 171.40625,164.052106 171.40625,159.59375 C171.40625,155.156228 172.984359,151.520848 176.140625,148.6875 C179.296891,145.854152 183.385392,144.4375 188.40625,144.4375 L188.40625,144.4375 Z M239.9375,167.09375 L240.34375,167.09375 C241.510423,167.09375 242.385414,167.380205 242.96875,167.953125 C243.552086,168.526045 243.84375,169.385411 243.84375,170.53125 C243.84375,171.760423 243.546878,172.645831 242.953125,173.1875 C242.359372,173.729169 241.354174,174 239.9375,174 L232.25,174 C230.85416,174 229.848961,173.729169 229.234375,173.1875 C228.619789,172.645831 228.3125,171.760423 228.3125,170.53125 C228.3125,169.385411 228.609372,168.526045 229.203125,167.953125 C229.796878,167.380205 230.687494,167.09375 231.875,167.09375 L232.25,167.09375 L232.25,158.0625 C232.25,155.562488 231.901045,153.786464 231.203125,152.734375 C230.505205,151.682286 229.343758,151.15625 227.71875,151.15625 C225.989575,151.15625 224.57813,151.786452 223.484375,153.046875 C222.39062,154.307298 221.84375,155.979156 221.84375,158.0625 L221.84375,167.09375 L222.21875,167.09375 C223.406256,167.09375 224.291664,167.380205 224.875,167.953125 C225.458336,168.526045 225.75,169.385411 225.75,170.53125 C225.75,171.760423 225.44792,172.645831 224.84375,173.1875 C224.23958,173.729169 223.23959,174 221.84375,174 L214.09375,174 C212.69791,174 211.69792,173.729169 211.09375,173.1875 C210.48958,172.645831 210.1875,171.760423 210.1875,170.53125 C210.1875,169.385411 210.479164,168.526045 211.0625,167.953125 C211.645836,167.380205 212.531244,167.09375 213.71875,167.09375 L214.09375,167.09375 L214.09375,151.96875 L213.5625,151.96875 C212.437494,151.96875 211.583336,151.682295 211,151.109375 C210.416664,150.536455 210.125,149.697922 210.125,148.59375 C210.125,147.364577 210.42708,146.479169 211.03125,145.9375 C211.63542,145.395831 212.656243,145.125 214.09375,145.125 L219.40625,145.125 C219.989586,145.125 220.43229,145.239582 220.734375,145.46875 C221.03646,145.697918 221.1875,146.031248 221.1875,146.46875 L221.1875,148.90625 C222.145838,147.406242 223.369784,146.276045 224.859375,145.515625 C226.348966,144.755205 228.072907,144.375 230.03125,144.375 C233.3646,144.375 235.84895,145.385407 237.484375,147.40625 C239.1198,149.427093 239.9375,152.510396 239.9375,156.65625 L239.9375,167.09375 Z M263.875,150.96875 C261.833323,150.96875 260.140632,151.708326 258.796875,153.1875 C257.453118,154.666674 256.78125,156.552072 256.78125,158.84375 C256.78125,161.093761 257.453118,162.953118 258.796875,164.421875 C260.140632,165.890632 261.833323,166.625 263.875,166.625 C265.93751,166.625 267.640618,165.890632 268.984375,164.421875 C270.328132,162.953118 271,161.093761 271,158.84375 C271,156.552072 270.328132,154.666674 268.984375,153.1875 C267.640618,151.708326 265.93751,150.96875 263.875,150.96875 L263.875,150.96875 Z M271.625,148.03125 L271.625,146.40625 C271.625,145.989581 271.77604,145.671876 272.078125,145.453125 C272.38021,145.234374 272.83333,145.125 273.4375,145.125 L278.53125,145.125 C279.968757,145.125 280.979164,145.390622 281.5625,145.921875 C282.145836,146.453128 282.4375,147.322911 282.4375,148.53125 C282.4375,149.656256 282.151045,150.510414 281.578125,151.09375 C281.005205,151.677086 280.166672,151.96875 279.0625,151.96875 L278.53125,151.96875 L278.53125,173.5 C278.53125,178.062523 277.291679,181.37499 274.8125,183.4375 C272.333321,185.50001 268.354194,186.53125 262.875,186.53125 C259.47915,186.53125 256.984383,186.19792 255.390625,185.53125 C253.796867,184.86458 253,183.812507 253,182.375 C253,181.374995 253.322913,180.562503 253.96875,179.9375 C254.614587,179.312497 255.468745,179 256.53125,179 C256.802085,179 257.697909,179.093749 259.21875,179.28125 C260.739591,179.468751 262.145827,179.5625 263.4375,179.5625 C266.416682,179.5625 268.473953,179.000006 269.609375,177.875 C270.744797,176.749994 271.3125,174.729181 271.3125,171.8125 L271.3125,170.40625 C269.833326,171.260421 268.369799,171.890623 266.921875,172.296875 C265.473951,172.703127 263.968758,172.90625 262.40625,172.90625 C258.218729,172.90625 254.796888,171.598971 252.140625,168.984375 C249.484362,166.369779 248.15625,163.010437 248.15625,158.90625 C248.15625,154.677062 249.546861,151.19793 252.328125,148.46875 C255.109389,145.73957 258.666645,144.375 263,144.375 C264.875009,144.375 266.520826,144.671872 267.9375,145.265625 C269.354174,145.859378 270.583328,146.781244 271.625,148.03125 L271.625,148.03125 Z" id="text-strong"></path>
        </g>
    </g>
</svg>