<?xml version="1.0" encoding="UTF-8" standalone="no"?>
<svg width="112px" height="47px" viewBox="0 0 112 47" version="1.1" xmlns="http://www.w3.org/2000/svg" xmlns:xlink="http://www.w3.org/1999/xlink">
    <!-- Generator: Sketch 3.7 (28169) - http://www.bohemiancoding.com/sketch -->
    <title>text-the</title>
    <desc>Created with Sketch.</desc>
    <defs></defs>
    <g id="Templates" stroke="none" stroke-width="1" fill="none" fill-rule="evenodd">
        <g id="Base-320" transform="translate(-54.000000, -72.000000)" fill="#F7F7F7">
            <path d="M68.528,80.752 L68.528,118 L78.576,118 L78.576,80.752 L92.272,80.752 L92.272,72.304 L54.832,72.304 L54.832,80.752 L68.528,80.752 Z M96.56,72.304 L96.56,118 L105.648,118 L105.648,100.656 C105.648,97.2853165 106.202661,94.8640074 107.312,93.392 C108.421339,91.9199926 110.213321,91.184 112.688,91.184 C114.864011,91.184 116.378662,91.8559933 117.232,93.2 C118.085338,94.5440067 118.512,96.5813197 118.512,99.312 L118.512,118 L127.6,118 L127.6,97.648 C127.6,95.5999898 127.418668,93.7333418 127.056,92.048 C126.693332,90.3626582 126.064004,88.9333392 125.168,87.76 C124.271996,86.5866608 123.045341,85.6693366 121.488,85.008 C119.930659,84.3466634 117.936012,84.016 115.504,84.016 C113.797325,84.016 112.048009,84.453329 110.256,85.328 C108.463991,86.202671 106.992006,87.5999904 105.84,89.52 L105.648,89.52 L105.648,72.304 L96.56,72.304 Z M156.784,97.904 L142,97.904 C142.042667,97.2639968 142.181332,96.5386707 142.416,95.728 C142.650668,94.9173293 143.055997,94.149337 143.632,93.424 C144.208003,92.698663 144.975995,92.0906691 145.936,91.6 C146.896005,91.1093309 148.101326,90.864 149.552,90.864 C151.770678,90.864 153.423995,91.4613274 154.512,92.656 C155.600005,93.8506726 156.357331,95.5999885 156.784,97.904 L156.784,97.904 Z M142,103.664 L165.872,103.664 C166.042668,101.103987 165.829336,98.6506784 165.232,96.304 C164.634664,93.9573216 163.664007,91.8666758 162.32,90.032 C160.975993,88.1973242 159.258677,86.7360054 157.168,85.648 C155.077323,84.5599946 152.624014,84.016 149.808,84.016 C147.290654,84.016 144.997344,84.4639955 142.928,85.36 C140.858656,86.2560045 139.077341,87.4826589 137.584,89.04 C136.090659,90.5973411 134.938671,92.442656 134.128,94.576 C133.317329,96.709344 132.912,99.013321 132.912,101.488 C132.912,104.048013 133.306663,106.394656 134.096,108.528 C134.885337,110.661344 136.005326,112.495992 137.456,114.032 C138.906674,115.568008 140.677323,116.751996 142.768,117.584 C144.858677,118.416004 147.20532,118.832 149.808,118.832 C153.562685,118.832 156.762653,117.978675 159.408,116.272 C162.053347,114.565325 164.015994,111.72802 165.296,107.76 L157.296,107.76 C156.997332,108.784005 156.186673,109.754662 154.864,110.672 C153.541327,111.589338 151.962676,112.048 150.128,112.048 C147.567987,112.048 145.60534,111.386673 144.24,110.064 C142.87466,108.741327 142.128001,106.608015 142,103.664 L142,103.664 Z" id="text-the"></path>
        </g>
    </g>
</svg>