<?xml version="1.0" encoding="UTF-8" standalone="no"?>
<svg width="244px" height="47px" viewBox="0 0 244 47" version="1.1" xmlns="http://www.w3.org/2000/svg" xmlns:xlink="http://www.w3.org/1999/xlink">
    <!-- Generator: Sketch 3.7 (28169) - http://www.bohemiancoding.com/sketch -->
    <title>text-element</title>
    <desc>Created with Sketch.</desc>
    <defs></defs>
    <g id="Templates" stroke="none" stroke-width="1" fill="none" fill-rule="evenodd">
        <g id="Base-320" transform="translate(-55.000000, -188.000000)" fill="#F7F7F7">
            <path d="M79.728,213.904 L64.944,213.904 C64.9866669,213.263997 65.1253322,212.538671 65.36,211.728 C65.5946678,210.917329 65.9999971,210.149337 66.576,209.424 C67.1520029,208.698663 67.9199952,208.090669 68.88,207.6 C69.8400048,207.109331 71.0453261,206.864 72.496,206.864 C74.7146778,206.864 76.3679946,207.461327 77.456,208.656 C78.5440054,209.850673 79.3013312,211.599988 79.728,213.904 L79.728,213.904 Z M64.944,219.664 L88.816,219.664 C88.9866675,217.103987 88.7733363,214.650678 88.176,212.304 C87.5786637,209.957322 86.6080067,207.866676 85.264,206.032 C83.9199933,204.197324 82.2026771,202.736005 80.112,201.648 C78.0213229,200.559995 75.5680141,200.016 72.752,200.016 C70.2346541,200.016 67.9413437,200.463996 65.872,201.36 C63.8026563,202.256004 62.0213408,203.482659 60.528,205.04 C59.0346592,206.597341 57.8826707,208.442656 57.072,210.576 C56.2613293,212.709344 55.856,215.013321 55.856,217.488 C55.856,220.048013 56.2506627,222.394656 57.04,224.528 C57.8293373,226.661344 58.9493261,228.495992 60.4,230.032 C61.8506739,231.568008 63.6213229,232.751996 65.712,233.584 C67.8026771,234.416004 70.1493203,234.832 72.752,234.832 C76.5066854,234.832 79.7066534,233.978675 82.352,232.272 C84.9973466,230.565325 86.9599936,227.72802 88.24,223.76 L80.24,223.76 C79.9413318,224.784005 79.1306733,225.754662 77.808,226.672 C76.4853267,227.589338 74.9066758,228.048 73.072,228.048 C70.5119872,228.048 68.5493402,227.386673 67.184,226.064 C65.8186598,224.741327 65.0720006,222.608015 64.944,219.664 L64.944,219.664 Z M94.448,188.304 L94.448,234 L103.536,234 L103.536,188.304 L94.448,188.304 Z M132.976,213.904 L118.192,213.904 C118.234667,213.263997 118.373332,212.538671 118.608,211.728 C118.842668,210.917329 119.247997,210.149337 119.824,209.424 C120.400003,208.698663 121.167995,208.090669 122.128,207.6 C123.088005,207.109331 124.293326,206.864 125.744,206.864 C127.962678,206.864 129.615995,207.461327 130.704,208.656 C131.792005,209.850673 132.549331,211.599988 132.976,213.904 L132.976,213.904 Z M118.192,219.664 L142.064,219.664 C142.234668,217.103987 142.021336,214.650678 141.424,212.304 C140.826664,209.957322 139.856007,207.866676 138.512,206.032 C137.167993,204.197324 135.450677,202.736005 133.36,201.648 C131.269323,200.559995 128.816014,200.016 126,200.016 C123.482654,200.016 121.189344,200.463996 119.12,201.36 C117.050656,202.256004 115.269341,203.482659 113.776,205.04 C112.282659,206.597341 111.130671,208.442656 110.32,210.576 C109.509329,212.709344 109.104,215.013321 109.104,217.488 C109.104,220.048013 109.498663,222.394656 110.288,224.528 C111.077337,226.661344 112.197326,228.495992 113.648,230.032 C115.098674,231.568008 116.869323,232.751996 118.96,233.584 C121.050677,234.416004 123.39732,234.832 126,234.832 C129.754685,234.832 132.954653,233.978675 135.6,232.272 C138.245347,230.565325 140.207994,227.72802 141.488,223.76 L133.488,223.76 C133.189332,224.784005 132.378673,225.754662 131.056,226.672 C129.733327,227.589338 128.154676,228.048 126.32,228.048 C123.759987,228.048 121.79734,227.386673 120.432,226.064 C119.06666,224.741327 118.320001,222.608015 118.192,219.664 L118.192,219.664 Z M147.696,200.912 L147.696,234 L156.784,234 L156.784,214.8 C156.784,213.178659 157.018664,211.866672 157.488,210.864 C157.957336,209.861328 158.522663,209.093336 159.184,208.56 C159.845337,208.026664 160.527996,207.664001 161.232,207.472 C161.936004,207.279999 162.501331,207.184 162.928,207.184 C164.378674,207.184 165.47733,207.429331 166.224,207.92 C166.97067,208.410669 167.503998,209.061329 167.824,209.872 C168.144002,210.682671 168.325333,211.567995 168.368,212.528 C168.410667,213.488005 168.432,214.458662 168.432,215.44 L168.432,234 L177.52,234 L177.52,215.568 C177.52,214.543995 177.594666,213.530672 177.744,212.528 C177.893334,211.525328 178.191998,210.629337 178.64,209.84 C179.088002,209.050663 179.706663,208.410669 180.496,207.92 C181.285337,207.429331 182.319994,207.184 183.6,207.184 C184.880006,207.184 185.89333,207.397331 186.64,207.824 C187.38667,208.250669 187.951998,208.826663 188.336,209.552 C188.720002,210.277337 188.954666,211.130662 189.04,212.112 C189.125334,213.093338 189.168,214.138661 189.168,215.248 L189.168,234 L198.256,234 L198.256,211.856 C198.256,209.722656 197.957336,207.898674 197.36,206.384 C196.762664,204.869326 195.930672,203.642671 194.864,202.704 C193.797328,201.765329 192.517341,201.082669 191.024,200.656 C189.530659,200.229331 187.909342,200.016 186.16,200.016 C183.855988,200.016 181.861342,200.570661 180.176,201.68 C178.490658,202.789339 177.157338,204.069326 176.176,205.52 C175.279996,203.47199 173.968009,202.042671 172.24,201.232 C170.511991,200.421329 168.602677,200.016 166.512,200.016 C164.335989,200.016 162.405342,200.485329 160.72,201.424 C159.034658,202.362671 157.594673,203.685325 156.4,205.392 L156.272,205.392 L156.272,200.912 L147.696,200.912 Z M227.696,213.904 L212.912,213.904 C212.954667,213.263997 213.093332,212.538671 213.328,211.728 C213.562668,210.917329 213.967997,210.149337 214.544,209.424 C215.120003,208.698663 215.887995,208.090669 216.848,207.6 C217.808005,207.109331 219.013326,206.864 220.464,206.864 C222.682678,206.864 224.335995,207.461327 225.424,208.656 C226.512005,209.850673 227.269331,211.599988 227.696,213.904 L227.696,213.904 Z M212.912,219.664 L236.784,219.664 C236.954668,217.103987 236.741336,214.650678 236.144,212.304 C235.546664,209.957322 234.576007,207.866676 233.232,206.032 C231.887993,204.197324 230.170677,202.736005 228.08,201.648 C225.989323,200.559995 223.536014,200.016 220.72,200.016 C218.202654,200.016 215.909344,200.463996 213.84,201.36 C211.770656,202.256004 209.989341,203.482659 208.496,205.04 C207.002659,206.597341 205.850671,208.442656 205.04,210.576 C204.229329,212.709344 203.824,215.013321 203.824,217.488 C203.824,220.048013 204.218663,222.394656 205.008,224.528 C205.797337,226.661344 206.917326,228.495992 208.368,230.032 C209.818674,231.568008 211.589323,232.751996 213.68,233.584 C215.770677,234.416004 218.11732,234.832 220.72,234.832 C224.474685,234.832 227.674653,233.978675 230.32,232.272 C232.965347,230.565325 234.927994,227.72802 236.208,223.76 L228.208,223.76 C227.909332,224.784005 227.098673,225.754662 225.776,226.672 C224.453327,227.589338 222.874676,228.048 221.04,228.048 C218.479987,228.048 216.51734,227.386673 215.152,226.064 C213.78666,224.741327 213.040001,222.608015 212.912,219.664 L212.912,219.664 Z M242.16,200.912 L242.16,234 L251.248,234 L251.248,216.656 C251.248,213.285316 251.802661,210.864007 252.912,209.392 C254.021339,207.919993 255.813321,207.184 258.288,207.184 C260.464011,207.184 261.978662,207.855993 262.832,209.2 C263.685338,210.544007 264.112,212.58132 264.112,215.312 L264.112,234 L273.2,234 L273.2,213.648 C273.2,211.59999 273.018668,209.733342 272.656,208.048 C272.293332,206.362658 271.664004,204.933339 270.768,203.76 C269.871996,202.586661 268.645341,201.669337 267.088,201.008 C265.530659,200.346663 263.536012,200.016 261.104,200.016 C259.18399,200.016 257.306676,200.453329 255.472,201.328 C253.637324,202.202671 252.144006,203.59999 250.992,205.52 L250.8,205.52 L250.8,200.912 L242.16,200.912 Z M291.632,200.912 L291.632,190.992 L282.544,190.992 L282.544,200.912 L277.04,200.912 L277.04,206.992 L282.544,206.992 L282.544,226.512 C282.544,228.176008 282.821331,229.519995 283.376,230.544 C283.930669,231.568005 284.687995,232.357331 285.648,232.912 C286.608005,233.466669 287.717327,233.839999 288.976,234.032 C290.234673,234.224001 291.567993,234.32 292.976,234.32 C293.872004,234.32 294.789329,234.298667 295.728,234.256 C296.666671,234.213333 297.519996,234.128001 298.288,234 L298.288,226.96 C297.861331,227.045334 297.413336,227.109333 296.944,227.152 C296.474664,227.194667 295.984003,227.216 295.472,227.216 C293.935992,227.216 292.912003,226.960003 292.4,226.448 C291.887997,225.935997 291.632,224.912008 291.632,223.376 L291.632,206.992 L298.288,206.992 L298.288,200.912 L291.632,200.912 Z" id="text-element"></path>
        </g>
    </g>
</svg>